<?xml version="1.0" standalone="no"?>
<!DOCTYPE svg PUBLIC "-//W3C//DTD SVG 20010904//EN"
 "http://www.w3.org/TR/2001/REC-SVG-20010904/DTD/svg10.dtd">
<svg version="1.0" xmlns="http://www.w3.org/2000/svg"
 width="700.000000pt" height="700.000000pt" viewBox="0 0 700.000000 700.000000"
 preserveAspectRatio="xMidYMid meet">
<metadata>
Created by potrace 1.11, written by Peter Selinger 2001-2013
</metadata>
<g transform="translate(0.000000,700.000000) scale(0.100000,-0.100000)"
fill="#000000" stroke="none">
<path d="M439 6993 c-1 -11 -1 -394 0 -414 1 -14 24 -16 204 -15 111 1 209 -2
217 -5 13 -6 15 -112 15 -876 l0 -868 -225 -2 c-192 -2 -234 -5 -290 -22 -92
-28 -148 -62 -215 -129 -62 -62 -98 -124 -126 -217 -18 -57 -19 -145 -16
-2055 2 -1988 2 -1995 23 -2051 61 -167 183 -279 349 -323 53 -14 193 -16
1155 -16 962 0 1102 2 1155 16 185 48 328 197 365 379 10 46 13 366 13 1363
l0 1302 21 1 c28 0 816 0 837 0 15 -1 16 -117 16 -1313 0 -1234 2 -1317 18
-1377 47 -166 156 -282 323 -344 l57 -22 1135 0 1135 0 57 22 c166 62 280 185
322 350 14 55 16 262 15 2035 0 1686 -3 1981 -15 2027 -33 125 -130 250 -239
309 -99 54 -157 63 -400 65 l-220 2 0 868 c0 496 4 871 9 874 5 3 95 5 200 5
105 0 200 1 211 3 19 4 20 12 19 217 l-1 213 -1313 0 -1313 0 0 -215 0 -215
199 -2 c109 0 208 -2 219 -2 20 -1 20 -7 19 -858 -1 -472 -2 -865 -3 -874 -1
-15 -75 -17 -871 -17 -660 0 -870 2 -871 11 -1 7 -2 400 -3 875 -1 760 1 862
14 863 8 0 106 1 218 1 111 1 202 4 203 7 1 8 1 403 0 419 -1 9 -270 12 -1311
12 -720 0 -1310 -3 -1311 -7z m3371 -3077 c136 -71 167 -236 66 -344 -63 -67
-83 -71 -374 -71 -284 0 -308 3 -365 57 -52 49 -70 89 -70 156 -1 100 63 189
153 214 19 5 152 8 295 8 232 -1 264 -4 295 -20z m-1328 -3063 c217 -98 172
-376 -67 -411 -27 -4 -433 -7 -900 -6 -638 1 -863 4 -902 13 -97 24 -172 115
-173 209 0 101 83 192 192 210 23 4 438 7 922 7 873 -1 881 -1 928 -22z m3931
4 c88 -38 137 -101 144 -186 4 -45 1 -66 -15 -98 -28 -54 -92 -108 -149 -123
-35 -10 -240 -13 -917 -13 -479 0 -889 3 -911 7 -49 9 -124 58 -153 100 -87
128 1 301 165 324 27 4 442 7 923 6 790 0 879 -2 913 -17z"/>
</g>
</svg>
